# Tiled2Unity generated file. Do not modify by hand.
# Wavefront file for 'MainRoom_mesh_0002.obj'

# Vertices (Count = 16)
v -192 -448 0
v -256 -448 0
v -256 -384 0
v -192 -384 0
v -1280 -448 0
v -1344 -448 0
v -1344 -384 0
v -1280 -384 0
v -192 -768 0
v -256 -768 0
v -256 -704 0
v -192 -704 0
v -1280 -768 0
v -1344 -768 0
v -1344 -704 0
v -1280 -704 0

# Texture cooridinates (Count = 4)
vt 0 0.5
vt 1 0.5
vt 1 1
vt 0 1

# Normal
vn 0 0 -1

# Mesh description
g MainRoom_mesh_0002

# Faces
f 1/1/1 2/2/1 3/3/1 4/4/1
f 5/1/1 6/2/1 7/3/1 8/4/1
f 9/1/1 10/2/1 11/3/1 12/4/1
f 13/1/1 14/2/1 15/3/1 16/4/1

